<svg fill="#FF004F" xmlns="http://www.w3.org/2000/svg" xmlns:xlink="http://www.w3.org/1999/xlink" version="1.1" x="0px" y="0px" viewBox="0 0 100 100" enable-background="new 0 0 100 100" xml:space="preserve"><g><path fill="#FF004F" d="M70.271,53.699c-0.06-0.096-0.131-0.179-0.204-0.262C69.272,34.145,59.896,20.66,55.089,14.961l-4.032-5.33   c0,0-2.832,3.701-3.929,5.113c-4.758,5.585-14.393,19.217-15.166,38.799c-0.041,0.051-0.087,0.097-0.121,0.156   c-0.336,0.528-7.131,11.516-7.77,28.158c0.136,2.459,0.576,7.1,2.018,9.739l6.307-10.214l0.03,0.309   c1.042-1.9,2.146-3.65,3.215-4.922c0.856,1.896,1.88,3.709,3.078,5.414c0.296,0.418,0.732,0.717,1.228,0.838   c1.933,0.473,3.897,0.816,5.876,1.037c0.186,1.119,0.413,2.216,0.665,3.293l0.055-0.081l4.479,8.219l4.471-8.219   c0,0,0.016,0.067,0.036,0.161c0.262-1.107,0.498-2.236,0.688-3.387c1.979-0.221,3.941-0.551,5.873-1.023   c0.498-0.119,0.935-0.418,1.229-0.836c1.212-1.726,2.244-3.553,3.103-5.471c1.067,1.253,2.171,2.988,3.214,4.881l0.021-0.213   l6.307,10.214c1.567-2.871,1.95-8.11,2.045-10.33C77.232,64.959,70.602,54.222,70.271,53.699z M28.4,80.215   c0.512-7.248,2.239-13.268,3.855-17.5c0.229,2.217,0.563,4.488,1.042,6.825c0.199,0.978,0.449,1.935,0.728,2.878   C31.948,74.231,30,77.23,28.4,80.215z M59.019,28.357c0.695,1.319,1.363,2.762,2.011,4.26H41.009   c0.647-1.498,1.317-2.94,2.011-4.26H59.019z M51.021,88.057c-2.534-8.832-1.974-21.234-1.719-25.107   c0.512-0.193,1.136-0.358,1.719-0.358c0.546,0,1.187,0.179,1.717,0.372C52.994,66.857,53.547,79.239,51.021,88.057z M64.593,68.691   c-0.777,3.781-2.219,7.279-4.291,10.4c-1.159,0.262-2.337,0.45-3.514,0.606c0.896-9.075,0.131-17.769,0.075-18.343   c-0.064-0.693-0.466-1.313-1.074-1.652c-0.25-0.137-2.479-1.35-4.769-1.35c-2.415,0-4.574,1.235-4.813,1.375   c-0.585,0.347-0.971,0.953-1.032,1.63c-0.053,0.573-0.822,9.274,0.08,18.356c-1.182-0.159-2.354-0.361-3.519-0.623   c-2.072-3.119-3.514-6.616-4.292-10.4c-2.598-12.659-0.995-23.434,1.968-31.961h23.214C65.589,45.258,67.193,56.032,64.593,68.691z    M68.026,72.363c0.271-0.928,0.515-1.863,0.714-2.823c0.489-2.396,0.826-4.719,1.054-6.986c1.634,4.239,3.401,10.319,3.918,17.661   C72.099,77.201,70.124,74.172,68.026,72.363z"></path></g></svg>